<svg xmlns="http://www.w3.org/2000/svg" viewBox="0 0 194 38" enable-background="new 0 0 194 38"><style type="text/css">.st0{fill:#181D28;} .st1{fill:url(#SVGID_1_);}</style><polygon class="st0" points="93.376953,2.486668 93.376953,15.06931 85.697449,15.06931 85.697449,21.246799 93.376953,21.246799 93.376953,35.635532 99.554871,35.635532 99.554871,2.486668"/><polygon class="st0" points="0.606689,8.664769 6.467651,8.664769 6.467651,35.673557 12.645813,35.673557 12.645813,8.664769 18.506897,8.664769 18.506897,2.486668 0.606689,2.486668"/><polygon class="st0" points="24.648315,2.486668 24.648315,8.664769 24.648315,16.084141 24.648315,22.262424 24.648315,29.495457 24.648315,35.673557 30.826416,35.673557 39.776306,35.673557 39.776306,29.495457 30.826416,29.495457 30.826416,22.262424 36.756165,22.262424 36.756165,16.084141 30.826416,16.084141 30.826416,8.664769 39.776306,8.664769 39.776306,2.486668 30.826416,2.486668"/><path class="st0" d="M61.185 8.185c3.311 0 6.251 1.651 8.113 4.207l4.904-3.897c-3.038-3.87-7.737-6.356-13.017-6.356-9.159 0-16.584 7.477-16.584 16.7 0 9.224 7.425 16.701 16.584 16.701 5.28 0 9.979-2.487 13.017-6.357l-4.904-3.897c-1.862 2.556-4.802 4.208-8.113 4.208-5.628 0-10.192-4.77-10.192-10.655 0-5.884 4.563-10.654 10.192-10.654z"/><linearGradient id="SVGID_1_" gradientUnits="userSpaceOnUse" x1="78.533" y1="17.938" x2="193.393" y2="17.938"><stop offset="0" stop-color="#1E67BD"/><stop offset="1" stop-color="#943F94"/></linearGradient><path class="st1" d="M78.533 2.487h6.342v33.149h-6.342v-33.149zm75.789 23.2c0 7.308-6.444 9.767-9.384 9.767h-11.541v-32.657h10.553c6.045 0 9.653 3.161 9.653 8.455 0 3.709-1.15 5.367-3.418 6.983 2.127 1.493 4.136 3.593 4.136 7.452zm-13.35-10.316h1.158c1.177 0 3.915-.284 3.915-2.908 0-2.451-2.453-2.817-3.915-2.817h-1.158v5.725zm5.704 9.966l.001-.02c.041-.988-.24-1.825-.812-2.422-.629-.655-1.606-1.001-2.827-1.001h-2.066v6.711h2.066c1.277 0 2.278-.339 2.894-.981.526-.549.784-1.333.745-2.267l-.001-.02zm46.717-15.686v-7.165h-16.116v33.149h16.116v-7.165h-8.95v-6.246h5.929v-7.165h-5.929v-5.408h8.95zm-28.135-7.165h-7.166v33.149h16.337v-7.165h-9.171v-25.984zm-48.468-2.246l13.882 34.991h-7.823l-1.617-4.238h-8.884l-1.618 4.238h-7.823l13.882-34.991zm2.002 24.362l-2.002-5.247-2.003 5.247h4.005z"/></svg>